<svg width="24" height="19" viewBox="0 0 24 19" fill="none" xmlns="http://www.w3.org/2000/svg">
<path fill-rule="evenodd" clip-rule="evenodd" d="M12.911 0.658013C12.69 0.554464 12.4399 0.5 12.1853 0.5C11.9308 0.5 11.6807 0.554464 11.4596 0.658013L1.2181 5.45801C0.938174 5.58936 0.719 5.79288 0.594658 6.03694C0.470316 6.281 0.447774 6.55192 0.530538 6.80757C0.613301 7.06322 0.796732 7.28928 1.05231 7.4506C1.30789 7.61192 1.62129 7.69946 1.94379 7.69961V16.0996C1.55576 16.0996 1.18362 16.226 0.909238 16.4511C0.634858 16.6761 0.480713 16.9814 0.480713 17.2996C0.480713 17.6179 0.634858 17.9231 0.909238 18.1481C1.18362 18.3732 1.55576 18.4996 1.94379 18.4996H22.4269C22.8149 18.4996 23.187 18.3732 23.4614 18.1481C23.7358 17.9231 23.8899 17.6179 23.8899 17.2996C23.8899 16.9814 23.7358 16.6761 23.4614 16.4511C23.187 16.226 22.8149 16.0996 22.4269 16.0996V7.69961C22.7494 7.69946 23.0628 7.61192 23.3183 7.4506C23.5739 7.28928 23.7574 7.06322 23.8401 6.80757C23.9229 6.55192 23.9003 6.281 23.776 6.03694C23.6517 5.79288 23.4325 5.58936 23.1526 5.45801L12.911 0.658013ZM6.33302 8.89961C5.94499 8.89961 5.57285 9.02604 5.29847 9.25109C5.02409 9.47613 4.86994 9.78135 4.86994 10.0996V13.6996C4.86994 14.0179 5.02409 14.3231 5.29847 14.5481C5.57285 14.7732 5.94499 14.8996 6.33302 14.8996C6.72105 14.8996 7.09319 14.7732 7.36757 14.5481C7.64195 14.3231 7.7961 14.0179 7.7961 13.6996V10.0996C7.7961 9.78135 7.64195 9.47613 7.36757 9.25109C7.09319 9.02604 6.72105 8.89961 6.33302 8.89961ZM10.7223 10.0996C10.7223 9.78135 10.8764 9.47613 11.1508 9.25109C11.4252 9.02604 11.7973 8.89961 12.1853 8.89961C12.5734 8.89961 12.9455 9.02604 13.2199 9.25109C13.4943 9.47613 13.6484 9.78135 13.6484 10.0996V13.6996C13.6484 14.0179 13.4943 14.3231 13.2199 14.5481C12.9455 14.7732 12.5734 14.8996 12.1853 14.8996C11.7973 14.8996 11.4252 14.7732 11.1508 14.5481C10.8764 14.3231 10.7223 14.0179 10.7223 13.6996V10.0996ZM18.0376 8.89961C17.6496 8.89961 17.2775 9.02604 17.0031 9.25109C16.7287 9.47613 16.5746 9.78135 16.5746 10.0996V13.6996C16.5746 14.0179 16.7287 14.3231 17.0031 14.5481C17.2775 14.7732 17.6496 14.8996 18.0376 14.8996C18.4257 14.8996 18.7978 14.7732 19.0722 14.5481C19.3466 14.3231 19.5007 14.0179 19.5007 13.6996V10.0996C19.5007 9.78135 19.3466 9.47613 19.0722 9.25109C18.7978 9.02604 18.4257 8.89961 18.0376 8.89961Z" fill="black"/>
</svg>
